<?xml version="1.0" encoding="UTF-8" standalone="no"?>
<!-- Created with Inkscape (http://www.inkscape.org/) -->

<svg
   xmlns:dc="http://purl.org/dc/elements/1.1/"
   xmlns:cc="http://creativecommons.org/ns#"
   xmlns:rdf="http://www.w3.org/1999/02/22-rdf-syntax-ns#"
   xmlns:svg="http://www.w3.org/2000/svg"
   xmlns="http://www.w3.org/2000/svg"
   xmlns:sodipodi="http://sodipodi.sourceforge.net/DTD/sodipodi-0.dtd"
   xmlns:inkscape="http://www.inkscape.org/namespaces/inkscape"
   width="210"
   height="430"
   id="svg7359"
   version="1.1"
   inkscape:version="0.48.4 r9943 custom"
   sodipodi:docname="Estudios.svg">
  <defs
     id="defs7361" />
  <sodipodi:namedview
     id="base"
     pagecolor="#ffffff"
     bordercolor="#666666"
     borderopacity="1.0"
     inkscape:pageopacity="0.0"
     inkscape:pageshadow="2"
     inkscape:zoom="0.87"
     inkscape:cx="111.67124"
     inkscape:cy="186.2436"
     inkscape:document-units="px"
     inkscape:current-layer="layer1"
     showgrid="false"
     inkscape:window-width="803"
     inkscape:window-height="654"
     inkscape:window-x="0"
     inkscape:window-y="0"
     inkscape:window-maximized="0"
     showguides="true"
     inkscape:guide-bbox="true">
    <sodipodi:guide
       orientation="0,1"
       position="232.5,215"
       id="guide7615" />
    <sodipodi:guide
       orientation="0,1"
       position="137.98226,220.24929"
       id="guide7650" />
    <sodipodi:guide
       orientation="1,0"
       position="139.08046,267.81609"
       id="guide7719" />
    <sodipodi:guide
       orientation="0,1"
       position="224.13793,5"
       id="guide7824" />
  </sodipodi:namedview>
  <metadata
     id="metadata7364">
    <rdf:RDF>
      <cc:Work
         rdf:about="">
        <dc:format>image/svg+xml</dc:format>
        <dc:type
           rdf:resource="http://purl.org/dc/dcmitype/StillImage" />
        <dc:title></dc:title>
      </cc:Work>
    </rdf:RDF>
  </metadata>
  <g
     inkscape:label="Capa 1"
     inkscape:groupmode="layer"
     id="layer1"
     transform="translate(0,-622.3622)">
    <g
       id="g7371"
       transform="translate(-252.04431,192.27617)">
      <path
         id="path7164-0"
         d="m 360.59684,814.35341 0,0 0,0 29.7851,-33.50823 c 1.95954,-2.35146 0,-5.09482 -2.54741,-5.09482 l -18.02783,0 c -2.35145,0 -3.91909,-0.19596 -4.89886,0.97977 l -29.98105,34.87992 c -0.78382,0.97977 -1.37169,1.56764 -1.37169,2.74336 0,1.17573 0.58787,1.56764 1.37169,2.54741 l 29.58914,34.68389 c 1.37168,1.56764 2.54741,2.54741 4.89887,2.54741 l 17.04805,0 c 3.72313,0 5.48672,-4.311 3.52718,-6.4665 l -29.39319,-33.31221"
         style="font-size:100px;font-style:normal;font-variant:normal;font-weight:bold;font-stretch:normal;text-align:start;line-height:125%;letter-spacing:0px;word-spacing:0px;writing-mode:lr-tb;text-anchor:start;fill:#2b2b2b;fill-opacity:1;stroke:none;font-family:Kunder;-inkscape-font-specification:Kunder Bold"
         inkscape:connector-curvature="0" />
      <path
         id="path7121-7"
         d="m 327.28456,716.96398 -16.46019,0 c -2.54741,0 -3.91909,1.37168 -3.91909,3.91909 l 0,129.32996 c 0,1.37168 1.37168,3.91909 3.91909,3.91909 l 16.65614,0 c 2.54741,0 3.52718,-2.54741 3.52718,-3.91909 l 0,-129.32996 c 0,-2.54741 -1.17572,-3.91909 -3.72313,-3.91909"
         style="font-size:100px;font-style:normal;font-variant:normal;font-weight:bold;font-stretch:normal;text-align:start;line-height:125%;letter-spacing:0px;word-spacing:0px;writing-mode:lr-tb;text-anchor:start;fill:#28f03c;fill-opacity:1;stroke:none;font-family:Kunder;-inkscape-font-specification:Kunder Bold"
         inkscape:connector-curvature="0" />
      <path
         d="m 280.25831,852.49257 c 0,1.36502 1.76359,2.59346 3.72314,2.59346 l 16.46019,0 c 1.95954,0 3.72313,-1.22844 3.72313,-2.59346 l 0,-90.36262 c 0,-1.36498 -1.76359,-2.59348 -3.72313,-2.59348 l -16.46019,0 c -1.95955,0 -3.72314,1.2285 -3.72314,2.59348 l 0,90.36262"
         style="font-size:100px;font-style:normal;font-variant:normal;font-weight:bold;font-stretch:normal;text-align:start;line-height:125%;letter-spacing:0px;word-spacing:0px;writing-mode:lr-tb;text-anchor:start;fill:#28f03c;fill-opacity:1;stroke:none;font-family:Kunder;-inkscape-font-specification:Kunder Bold"
         id="path5027-9-0"
         inkscape:connector-curvature="0" />
      <path
         d="m 253.04431,853.62225 c 0,0.77029 1.76359,1.46378 3.72313,1.46378 l 16.46019,0 c 1.95955,0 3.72314,-0.69349 3.72314,-1.46378 l 0,-51.0033 c 0,-0.77042 -1.76359,-1.46382 -3.72314,-1.46382 l -16.46019,0 c -1.95954,0 -3.72313,0.6934 -3.72313,1.46382 l 0,51.0033"
         style="font-size:100px;font-style:normal;font-variant:normal;font-weight:bold;font-stretch:normal;text-align:start;line-height:125%;letter-spacing:0px;word-spacing:0px;writing-mode:lr-tb;text-anchor:start;fill:#28f03c;fill-opacity:1;stroke:none;font-family:Kunder;-inkscape-font-specification:Kunder Bold"
         id="path5027-9-2-9"
         inkscape:connector-curvature="0" />
    </g>
    <g
       transform="translate(-489.17487,-22.01868)"
       id="g7377">
      <path
         id="path7164-6-3"
         d="m 597.72734,814.35333 0,0 0,0 29.78508,-33.50822 c 1.95954,-2.35145 0,-5.09481 -2.54741,-5.09481 l -18.02781,0 c -2.35146,0 -3.91909,-0.19596 -4.89886,0.97977 l -29.98104,34.8799 c -0.78382,0.97977 -1.37168,1.56764 -1.37168,2.74336 0,1.17573 0.58786,1.56764 1.37168,2.54741 l 29.58913,34.68395 c 1.37168,1.56763 2.54741,2.5474 4.89886,2.5474 l 17.04804,0 c 3.72313,0 5.48673,-4.31099 3.52718,-6.46649 l -29.39317,-33.31227"
         style="font-size:100px;font-style:normal;font-variant:normal;font-weight:bold;font-stretch:normal;text-align:start;line-height:125%;letter-spacing:0px;word-spacing:0px;writing-mode:lr-tb;text-anchor:start;fill:#28f03c;fill-opacity:1;stroke:none;font-family:Kunder;-inkscape-font-specification:Kunder Bold"
         inkscape:connector-curvature="0" />
      <path
         id="path7121-9-0"
         d="m 564.41507,716.96395 -16.46017,0 c -2.54741,0 -3.91909,1.37168 -3.91909,3.91909 l 0,129.32996 c 0,1.37169 1.37168,3.91909 3.91909,3.91909 l 16.65613,0 c 2.54741,0 3.52718,-2.5474 3.52718,-3.91909 l 0,-129.32996 c 0,-2.54741 -1.17573,-3.91909 -3.72314,-3.91909"
         style="font-size:100px;font-style:normal;font-variant:normal;font-weight:bold;font-stretch:normal;text-align:start;line-height:125%;letter-spacing:0px;word-spacing:0px;writing-mode:lr-tb;text-anchor:start;fill:#2b2b2b;fill-opacity:1;stroke:none;font-family:Kunder;-inkscape-font-specification:Kunder Bold"
         inkscape:connector-curvature="0" />
      <path
         d="m 517.38886,852.49246 c 0,1.36498 1.76359,2.59342 3.72313,2.59342 l 16.46018,0 c 1.95954,0 3.72314,-1.22844 3.72314,-2.59342 l 0,-90.36257 c 0,-1.36498 -1.7636,-2.59347 -3.72314,-2.59347 l -16.46018,0 c -1.95954,0 -3.72313,1.22849 -3.72313,2.59347 l 0,90.36257"
         style="font-size:100px;font-style:normal;font-variant:normal;font-weight:bold;font-stretch:normal;text-align:start;line-height:125%;letter-spacing:0px;word-spacing:0px;writing-mode:lr-tb;text-anchor:start;fill:#2b2b2b;fill-opacity:1;stroke:none;font-family:Kunder;-inkscape-font-specification:Kunder Bold"
         id="path5027-9-4-7"
         inkscape:connector-curvature="0" />
      <path
         d="m 490.17487,853.62208 c 0,0.77044 1.7636,1.4638 3.72314,1.4638 l 16.46018,0 c 1.95954,0 3.72313,-0.69336 3.72313,-1.4638 l 0,-51.00321 c 0,-0.77041 -1.76359,-1.46382 -3.72313,-1.46382 l -16.46018,0 c -1.95954,0 -3.72314,0.69341 -3.72314,1.46382 l 0,51.00321"
         style="font-size:100px;font-style:normal;font-variant:normal;font-weight:bold;font-stretch:normal;text-align:start;line-height:125%;letter-spacing:0px;word-spacing:0px;writing-mode:lr-tb;text-anchor:start;fill:#2b2b2b;fill-opacity:1;stroke:none;font-family:Kunder;-inkscape-font-specification:Kunder Bold"
         id="path5027-9-2-1-3"
         inkscape:connector-curvature="0" />
    </g>
  </g>
</svg>
